<mxfile host="Electron" modified="2023-12-03T18:08:59.497Z" agent="Mozilla/5.0 (Windows NT 10.0; Win64; x64) AppleWebKit/537.36 (KHTML, like Gecko) draw.io/22.0.2 Chrome/114.0.5735.289 Electron/25.8.4 Safari/537.36" etag="EcK-IeDbluirUzDpT32u" version="22.0.2" type="device">
  <diagram id="C5RBs43oDa-KdzZeNtuy" name="Page-1">
    <mxGraphModel dx="2514" dy="984" grid="1" gridSize="10" guides="1" tooltips="1" connect="1" arrows="1" fold="1" page="1" pageScale="1" pageWidth="827" pageHeight="1169" background="none" math="0" shadow="0">
      <root>
        <mxCell id="WIyWlLk6GJQsqaUBKTNV-0" />
        <mxCell id="WIyWlLk6GJQsqaUBKTNV-1" parent="WIyWlLk6GJQsqaUBKTNV-0" />
        <mxCell id="O6kwRCL_06sW0Yhjf2Mc-2" value="начало" style="ellipse;whiteSpace=wrap;html=1;strokeColor=#36393d;fillColor=#eeeeee;fontColor=#000000;" parent="WIyWlLk6GJQsqaUBKTNV-1" vertex="1">
          <mxGeometry x="-770" y="30" width="120" height="50" as="geometry" />
        </mxCell>
        <mxCell id="CJra_WSzJUt3smpGOyG3-6" value="" style="rounded=0;html=1;jettySize=auto;orthogonalLoop=1;fontSize=11;endArrow=block;endFill=0;endSize=8;strokeWidth=1;shadow=0;labelBackgroundColor=none;edgeStyle=orthogonalEdgeStyle;strokeColor=#36393d;fillColor=#eeeeee;fontColor=#000000;" parent="WIyWlLk6GJQsqaUBKTNV-1" edge="1">
          <mxGeometry relative="1" as="geometry">
            <mxPoint x="-560" y="410" as="sourcePoint" />
            <mxPoint x="-559.73" y="440" as="targetPoint" />
          </mxGeometry>
        </mxCell>
        <mxCell id="CJra_WSzJUt3smpGOyG3-31" value="&lt;font style=&quot;font-size: 11px;&quot;&gt;Впишите пределы интегрирования:&lt;/font&gt;" style="shape=parallelogram;perimeter=parallelogramPerimeter;whiteSpace=wrap;html=1;fixedSize=1;strokeColor=#36393d;fillColor=#eeeeee;fontColor=#000000;" parent="WIyWlLk6GJQsqaUBKTNV-1" vertex="1">
          <mxGeometry x="-770" y="110" width="120" height="50" as="geometry" />
        </mxCell>
        <mxCell id="CJra_WSzJUt3smpGOyG3-32" value="" style="rounded=0;html=1;jettySize=auto;orthogonalLoop=1;fontSize=11;endArrow=block;endFill=0;endSize=8;strokeWidth=1;shadow=0;labelBackgroundColor=none;edgeStyle=orthogonalEdgeStyle;strokeColor=#36393d;fillColor=#eeeeee;fontColor=#000000;" parent="WIyWlLk6GJQsqaUBKTNV-1" edge="1">
          <mxGeometry relative="1" as="geometry">
            <mxPoint x="-710.34" y="80" as="sourcePoint" />
            <mxPoint x="-710.07" y="110" as="targetPoint" />
          </mxGeometry>
        </mxCell>
        <mxCell id="gXV8-5lS1U5zjnlFUvk6-14" value="&lt;font style=&quot;font-size: 14px;&quot;&gt;f = 0&lt;/font&gt;" style="rhombus;whiteSpace=wrap;html=1;shadow=0;fontFamily=Helvetica;fontSize=12;align=center;strokeWidth=1;spacing=6;spacingTop=-4;strokeColor=#36393d;fillColor=#eeeeee;fontColor=#000000;" parent="WIyWlLk6GJQsqaUBKTNV-1" vertex="1">
          <mxGeometry x="-620" y="440" width="120" height="80" as="geometry" />
        </mxCell>
        <mxCell id="gXV8-5lS1U5zjnlFUvk6-15" value="" style="rounded=0;html=1;jettySize=auto;orthogonalLoop=1;fontSize=11;endArrow=block;endFill=0;endSize=8;strokeWidth=1;shadow=0;labelBackgroundColor=none;edgeStyle=orthogonalEdgeStyle;strokeColor=#36393d;fillColor=#eeeeee;fontColor=#000000;exitX=0.5;exitY=1;exitDx=0;exitDy=0;" parent="WIyWlLk6GJQsqaUBKTNV-1" source="gXV8-5lS1U5zjnlFUvk6-14" edge="1">
          <mxGeometry relative="1" as="geometry">
            <mxPoint x="-390.37" y="430" as="sourcePoint" />
            <mxPoint x="-560" y="550" as="targetPoint" />
          </mxGeometry>
        </mxCell>
        <mxCell id="Kg9K-jLbq-SvP9runcIR-18" value="конец" style="ellipse;whiteSpace=wrap;html=1;strokeColor=#36393d;fillColor=#eeeeee;fontColor=#000000;" parent="WIyWlLk6GJQsqaUBKTNV-1" vertex="1">
          <mxGeometry x="-620" y="640" width="120" height="50" as="geometry" />
        </mxCell>
        <mxCell id="nKaHtaXbYxPYXS3pLccz-5" value="" style="rounded=0;html=1;jettySize=auto;orthogonalLoop=1;fontSize=11;endArrow=block;endFill=0;endSize=8;strokeWidth=1;shadow=0;labelBackgroundColor=none;edgeStyle=orthogonalEdgeStyle;strokeColor=#36393d;fillColor=#eeeeee;fontColor=#000000;exitX=0.5;exitY=1;exitDx=0;exitDy=0;" parent="WIyWlLk6GJQsqaUBKTNV-1" edge="1" source="HUSXWBsQ4Mg_SYfQPAs_-49">
          <mxGeometry relative="1" as="geometry">
            <mxPoint x="-560.4300000000001" y="610" as="sourcePoint" />
            <mxPoint x="-560.1600000000001" y="640" as="targetPoint" />
          </mxGeometry>
        </mxCell>
        <mxCell id="HUSXWBsQ4Mg_SYfQPAs_-13" value="ввод a,b" style="shape=parallelogram;perimeter=parallelogramPerimeter;whiteSpace=wrap;html=1;fixedSize=1;strokeColor=#36393d;fillColor=#eeeeee;fontColor=#000000;" vertex="1" parent="WIyWlLk6GJQsqaUBKTNV-1">
          <mxGeometry x="-770" y="190" width="120" height="50" as="geometry" />
        </mxCell>
        <mxCell id="HUSXWBsQ4Mg_SYfQPAs_-14" value="" style="rounded=0;html=1;jettySize=auto;orthogonalLoop=1;fontSize=11;endArrow=block;endFill=0;endSize=8;strokeWidth=1;shadow=0;labelBackgroundColor=none;edgeStyle=orthogonalEdgeStyle;strokeColor=#36393d;fillColor=#eeeeee;fontColor=#000000;" edge="1" parent="WIyWlLk6GJQsqaUBKTNV-1">
          <mxGeometry relative="1" as="geometry">
            <mxPoint x="-710.34" y="160" as="sourcePoint" />
            <mxPoint x="-710.07" y="190" as="targetPoint" />
          </mxGeometry>
        </mxCell>
        <mxCell id="HUSXWBsQ4Mg_SYfQPAs_-15" value="Пределы интегрирования&lt;br&gt;&amp;nbsp;[&#39;,a,&#39; ; &#39;,b,&#39;]" style="shape=parallelogram;perimeter=parallelogramPerimeter;whiteSpace=wrap;html=1;fixedSize=1;strokeColor=#36393d;fillColor=#eeeeee;fontColor=#000000;" vertex="1" parent="WIyWlLk6GJQsqaUBKTNV-1">
          <mxGeometry x="-770" y="270" width="120" height="50" as="geometry" />
        </mxCell>
        <mxCell id="HUSXWBsQ4Mg_SYfQPAs_-16" value="" style="rounded=0;html=1;jettySize=auto;orthogonalLoop=1;fontSize=11;endArrow=block;endFill=0;endSize=8;strokeWidth=1;shadow=0;labelBackgroundColor=none;edgeStyle=orthogonalEdgeStyle;strokeColor=#36393d;fillColor=#eeeeee;fontColor=#000000;" edge="1" parent="WIyWlLk6GJQsqaUBKTNV-1">
          <mxGeometry relative="1" as="geometry">
            <mxPoint x="-710.34" y="240" as="sourcePoint" />
            <mxPoint x="-710.07" y="270" as="targetPoint" />
          </mxGeometry>
        </mxCell>
        <mxCell id="HUSXWBsQ4Mg_SYfQPAs_-17" value="&lt;font style=&quot;font-size: 9px;&quot;&gt;Выберите действие, которое хотите &lt;br&gt;выполнить&lt;/font&gt;" style="shape=parallelogram;perimeter=parallelogramPerimeter;whiteSpace=wrap;html=1;fixedSize=1;strokeColor=#36393d;fillColor=#eeeeee;fontColor=#000000;" vertex="1" parent="WIyWlLk6GJQsqaUBKTNV-1">
          <mxGeometry x="-770" y="350" width="120" height="50" as="geometry" />
        </mxCell>
        <mxCell id="HUSXWBsQ4Mg_SYfQPAs_-18" value="" style="rounded=0;html=1;jettySize=auto;orthogonalLoop=1;fontSize=11;endArrow=block;endFill=0;endSize=8;strokeWidth=1;shadow=0;labelBackgroundColor=none;edgeStyle=orthogonalEdgeStyle;strokeColor=#36393d;fillColor=#eeeeee;fontColor=#000000;" edge="1" parent="WIyWlLk6GJQsqaUBKTNV-1">
          <mxGeometry relative="1" as="geometry">
            <mxPoint x="-710.34" y="320" as="sourcePoint" />
            <mxPoint x="-710.07" y="350" as="targetPoint" />
          </mxGeometry>
        </mxCell>
        <mxCell id="HUSXWBsQ4Mg_SYfQPAs_-19" value="0 - Выход из программы" style="shape=parallelogram;perimeter=parallelogramPerimeter;whiteSpace=wrap;html=1;fixedSize=1;strokeColor=#36393d;fillColor=#eeeeee;fontColor=#000000;" vertex="1" parent="WIyWlLk6GJQsqaUBKTNV-1">
          <mxGeometry x="-770" y="430" width="120" height="50" as="geometry" />
        </mxCell>
        <mxCell id="HUSXWBsQ4Mg_SYfQPAs_-20" value="" style="rounded=0;html=1;jettySize=auto;orthogonalLoop=1;fontSize=11;endArrow=block;endFill=0;endSize=8;strokeWidth=1;shadow=0;labelBackgroundColor=none;edgeStyle=orthogonalEdgeStyle;strokeColor=#36393d;fillColor=#eeeeee;fontColor=#000000;" edge="1" parent="WIyWlLk6GJQsqaUBKTNV-1">
          <mxGeometry relative="1" as="geometry">
            <mxPoint x="-710.34" y="400" as="sourcePoint" />
            <mxPoint x="-710.07" y="430" as="targetPoint" />
          </mxGeometry>
        </mxCell>
        <mxCell id="HUSXWBsQ4Mg_SYfQPAs_-21" value="1 – Методом интеграла" style="shape=parallelogram;perimeter=parallelogramPerimeter;whiteSpace=wrap;html=1;fixedSize=1;strokeColor=#36393d;fillColor=#eeeeee;fontColor=#000000;" vertex="1" parent="WIyWlLk6GJQsqaUBKTNV-1">
          <mxGeometry x="-620" y="40" width="120" height="50" as="geometry" />
        </mxCell>
        <mxCell id="HUSXWBsQ4Mg_SYfQPAs_-22" value="" style="rounded=0;html=1;jettySize=auto;orthogonalLoop=1;fontSize=11;endArrow=block;endFill=0;endSize=8;strokeWidth=1;shadow=0;labelBackgroundColor=none;edgeStyle=orthogonalEdgeStyle;strokeColor=#36393d;fillColor=#eeeeee;fontColor=#000000;entryX=0.5;entryY=0;entryDx=0;entryDy=0;" edge="1" parent="WIyWlLk6GJQsqaUBKTNV-1" target="HUSXWBsQ4Mg_SYfQPAs_-21">
          <mxGeometry relative="1" as="geometry">
            <mxPoint x="-710.34" y="480" as="sourcePoint" />
            <mxPoint x="-710.07" y="510" as="targetPoint" />
            <Array as="points">
              <mxPoint x="-710" y="510" />
              <mxPoint x="-630" y="510" />
              <mxPoint x="-630" y="20" />
              <mxPoint x="-560" y="20" />
            </Array>
          </mxGeometry>
        </mxCell>
        <mxCell id="HUSXWBsQ4Mg_SYfQPAs_-23" value="&lt;font style=&quot;font-size: 9px;&quot;&gt;2 – Методом левых прямоугольников&lt;/font&gt;" style="shape=parallelogram;perimeter=parallelogramPerimeter;whiteSpace=wrap;html=1;fixedSize=1;strokeColor=#36393d;fillColor=#eeeeee;fontColor=#000000;" vertex="1" parent="WIyWlLk6GJQsqaUBKTNV-1">
          <mxGeometry x="-620" y="120" width="120" height="50" as="geometry" />
        </mxCell>
        <mxCell id="HUSXWBsQ4Mg_SYfQPAs_-24" value="" style="rounded=0;html=1;jettySize=auto;orthogonalLoop=1;fontSize=11;endArrow=block;endFill=0;endSize=8;strokeWidth=1;shadow=0;labelBackgroundColor=none;edgeStyle=orthogonalEdgeStyle;strokeColor=#36393d;fillColor=#eeeeee;fontColor=#000000;" edge="1" parent="WIyWlLk6GJQsqaUBKTNV-1">
          <mxGeometry relative="1" as="geometry">
            <mxPoint x="-560.34" y="90" as="sourcePoint" />
            <mxPoint x="-560.07" y="120" as="targetPoint" />
          </mxGeometry>
        </mxCell>
        <mxCell id="HUSXWBsQ4Mg_SYfQPAs_-25" value="&lt;font style=&quot;font-size: 7px;&quot;&gt;3 – Оценка погрешности полученного результата &lt;br&gt;между двумя методами&lt;/font&gt;" style="shape=parallelogram;perimeter=parallelogramPerimeter;whiteSpace=wrap;html=1;fixedSize=1;strokeColor=#36393d;fillColor=#eeeeee;fontColor=#000000;" vertex="1" parent="WIyWlLk6GJQsqaUBKTNV-1">
          <mxGeometry x="-620" y="200" width="120" height="50" as="geometry" />
        </mxCell>
        <mxCell id="HUSXWBsQ4Mg_SYfQPAs_-26" value="" style="rounded=0;html=1;jettySize=auto;orthogonalLoop=1;fontSize=11;endArrow=block;endFill=0;endSize=8;strokeWidth=1;shadow=0;labelBackgroundColor=none;edgeStyle=orthogonalEdgeStyle;strokeColor=#36393d;fillColor=#eeeeee;fontColor=#000000;" edge="1" parent="WIyWlLk6GJQsqaUBKTNV-1">
          <mxGeometry relative="1" as="geometry">
            <mxPoint x="-560.34" y="170" as="sourcePoint" />
            <mxPoint x="-560.07" y="200" as="targetPoint" />
          </mxGeometry>
        </mxCell>
        <mxCell id="HUSXWBsQ4Mg_SYfQPAs_-27" value="&lt;font style=&quot;font-size: 11px;&quot;&gt;4 – Назначение&lt;br&gt;&amp;nbsp;других пределов&lt;/font&gt;" style="shape=parallelogram;perimeter=parallelogramPerimeter;whiteSpace=wrap;html=1;fixedSize=1;strokeColor=#36393d;fillColor=#eeeeee;fontColor=#000000;" vertex="1" parent="WIyWlLk6GJQsqaUBKTNV-1">
          <mxGeometry x="-620" y="280" width="120" height="50" as="geometry" />
        </mxCell>
        <mxCell id="HUSXWBsQ4Mg_SYfQPAs_-28" value="" style="rounded=0;html=1;jettySize=auto;orthogonalLoop=1;fontSize=11;endArrow=block;endFill=0;endSize=8;strokeWidth=1;shadow=0;labelBackgroundColor=none;edgeStyle=orthogonalEdgeStyle;strokeColor=#36393d;fillColor=#eeeeee;fontColor=#000000;" edge="1" parent="WIyWlLk6GJQsqaUBKTNV-1">
          <mxGeometry relative="1" as="geometry">
            <mxPoint x="-560.34" y="250" as="sourcePoint" />
            <mxPoint x="-560.07" y="280" as="targetPoint" />
          </mxGeometry>
        </mxCell>
        <mxCell id="HUSXWBsQ4Mg_SYfQPAs_-29" value="ввод f" style="shape=parallelogram;perimeter=parallelogramPerimeter;whiteSpace=wrap;html=1;fixedSize=1;strokeColor=#36393d;fillColor=#eeeeee;fontColor=#000000;" vertex="1" parent="WIyWlLk6GJQsqaUBKTNV-1">
          <mxGeometry x="-620" y="360" width="120" height="50" as="geometry" />
        </mxCell>
        <mxCell id="HUSXWBsQ4Mg_SYfQPAs_-30" value="" style="rounded=0;html=1;jettySize=auto;orthogonalLoop=1;fontSize=11;endArrow=block;endFill=0;endSize=8;strokeWidth=1;shadow=0;labelBackgroundColor=none;edgeStyle=orthogonalEdgeStyle;strokeColor=#36393d;fillColor=#eeeeee;fontColor=#000000;" edge="1" parent="WIyWlLk6GJQsqaUBKTNV-1">
          <mxGeometry relative="1" as="geometry">
            <mxPoint x="-560.34" y="330" as="sourcePoint" />
            <mxPoint x="-560.07" y="360" as="targetPoint" />
          </mxGeometry>
        </mxCell>
        <mxCell id="HUSXWBsQ4Mg_SYfQPAs_-31" value="" style="rounded=0;html=1;jettySize=auto;orthogonalLoop=1;fontSize=11;endArrow=block;endFill=0;endSize=8;strokeWidth=1;shadow=0;labelBackgroundColor=none;edgeStyle=orthogonalEdgeStyle;strokeColor=#36393d;fillColor=#eeeeee;fontColor=#000000;exitX=0.5;exitY=1;exitDx=0;exitDy=0;entryX=0.5;entryY=0;entryDx=0;entryDy=0;" edge="1" parent="WIyWlLk6GJQsqaUBKTNV-1" target="HUSXWBsQ4Mg_SYfQPAs_-32">
          <mxGeometry relative="1" as="geometry">
            <mxPoint x="-500" y="480" as="sourcePoint" />
            <mxPoint x="-480" y="480" as="targetPoint" />
            <Array as="points">
              <mxPoint x="-450" y="480" />
            </Array>
          </mxGeometry>
        </mxCell>
        <mxCell id="HUSXWBsQ4Mg_SYfQPAs_-32" value="&lt;font style=&quot;font-size: 14px;&quot;&gt;f = 1&lt;/font&gt;" style="rhombus;whiteSpace=wrap;html=1;shadow=0;fontFamily=Helvetica;fontSize=12;align=center;strokeWidth=1;spacing=6;spacingTop=-4;strokeColor=#36393d;fillColor=#eeeeee;fontColor=#000000;" vertex="1" parent="WIyWlLk6GJQsqaUBKTNV-1">
          <mxGeometry x="-510" y="500" width="120" height="80" as="geometry" />
        </mxCell>
        <mxCell id="HUSXWBsQ4Mg_SYfQPAs_-33" value="" style="rounded=0;html=1;jettySize=auto;orthogonalLoop=1;fontSize=11;endArrow=block;endFill=0;endSize=8;strokeWidth=1;shadow=0;labelBackgroundColor=none;edgeStyle=orthogonalEdgeStyle;strokeColor=#36393d;fillColor=#eeeeee;fontColor=#000000;exitX=0.5;exitY=1;exitDx=0;exitDy=0;" edge="1" parent="WIyWlLk6GJQsqaUBKTNV-1" source="HUSXWBsQ4Mg_SYfQPAs_-32">
          <mxGeometry relative="1" as="geometry">
            <mxPoint x="-280.37" y="490" as="sourcePoint" />
            <mxPoint x="-450" y="610" as="targetPoint" />
          </mxGeometry>
        </mxCell>
        <mxCell id="HUSXWBsQ4Mg_SYfQPAs_-35" value="&lt;font style=&quot;font-size: 14px;&quot;&gt;f = 2&lt;/font&gt;" style="rhombus;whiteSpace=wrap;html=1;shadow=0;fontFamily=Helvetica;fontSize=12;align=center;strokeWidth=1;spacing=6;spacingTop=-4;strokeColor=#36393d;fillColor=#eeeeee;fontColor=#000000;" vertex="1" parent="WIyWlLk6GJQsqaUBKTNV-1">
          <mxGeometry x="-400" y="560" width="120" height="80" as="geometry" />
        </mxCell>
        <mxCell id="HUSXWBsQ4Mg_SYfQPAs_-36" value="" style="rounded=0;html=1;jettySize=auto;orthogonalLoop=1;fontSize=11;endArrow=block;endFill=0;endSize=8;strokeWidth=1;shadow=0;labelBackgroundColor=none;edgeStyle=orthogonalEdgeStyle;strokeColor=#36393d;fillColor=#eeeeee;fontColor=#000000;exitX=0.5;exitY=1;exitDx=0;exitDy=0;" edge="1" parent="WIyWlLk6GJQsqaUBKTNV-1" source="HUSXWBsQ4Mg_SYfQPAs_-35">
          <mxGeometry relative="1" as="geometry">
            <mxPoint x="-340.02" y="650" as="sourcePoint" />
            <mxPoint x="-340.02" y="670" as="targetPoint" />
            <Array as="points" />
          </mxGeometry>
        </mxCell>
        <mxCell id="HUSXWBsQ4Mg_SYfQPAs_-37" value="" style="rounded=0;html=1;jettySize=auto;orthogonalLoop=1;fontSize=11;endArrow=block;endFill=0;endSize=8;strokeWidth=1;shadow=0;labelBackgroundColor=none;edgeStyle=orthogonalEdgeStyle;strokeColor=#36393d;fillColor=#eeeeee;fontColor=#000000;exitX=0.5;exitY=1;exitDx=0;exitDy=0;entryX=0.5;entryY=0;entryDx=0;entryDy=0;" edge="1" parent="WIyWlLk6GJQsqaUBKTNV-1">
          <mxGeometry relative="1" as="geometry">
            <mxPoint x="-280" y="600" as="sourcePoint" />
            <mxPoint x="-230" y="620" as="targetPoint" />
            <Array as="points">
              <mxPoint x="-230" y="600" />
            </Array>
          </mxGeometry>
        </mxCell>
        <mxCell id="HUSXWBsQ4Mg_SYfQPAs_-38" value="&lt;font style=&quot;font-size: 14px;&quot;&gt;f = 3&lt;/font&gt;" style="rhombus;whiteSpace=wrap;html=1;shadow=0;fontFamily=Helvetica;fontSize=12;align=center;strokeWidth=1;spacing=6;spacingTop=-4;strokeColor=#36393d;fillColor=#eeeeee;fontColor=#000000;" vertex="1" parent="WIyWlLk6GJQsqaUBKTNV-1">
          <mxGeometry x="-290" y="619" width="120" height="80" as="geometry" />
        </mxCell>
        <mxCell id="HUSXWBsQ4Mg_SYfQPAs_-40" value="&lt;font style=&quot;font-size: 14px;&quot;&gt;f = 4&lt;/font&gt;" style="rhombus;whiteSpace=wrap;html=1;shadow=0;fontFamily=Helvetica;fontSize=12;align=center;strokeWidth=1;spacing=6;spacingTop=-4;strokeColor=#36393d;fillColor=#eeeeee;fontColor=#000000;" vertex="1" parent="WIyWlLk6GJQsqaUBKTNV-1">
          <mxGeometry x="-180" y="680" width="120" height="80" as="geometry" />
        </mxCell>
        <mxCell id="HUSXWBsQ4Mg_SYfQPAs_-45" value="" style="rounded=0;html=1;jettySize=auto;orthogonalLoop=1;fontSize=11;endArrow=block;endFill=0;endSize=8;strokeWidth=1;shadow=0;labelBackgroundColor=none;edgeStyle=orthogonalEdgeStyle;strokeColor=#36393d;fillColor=#eeeeee;fontColor=#000000;exitX=0.5;exitY=1;exitDx=0;exitDy=0;entryX=0.5;entryY=0;entryDx=0;entryDy=0;" edge="1" parent="WIyWlLk6GJQsqaUBKTNV-1">
          <mxGeometry relative="1" as="geometry">
            <mxPoint x="-390" y="540" as="sourcePoint" />
            <mxPoint x="-340" y="560" as="targetPoint" />
            <Array as="points">
              <mxPoint x="-340" y="540" />
            </Array>
          </mxGeometry>
        </mxCell>
        <mxCell id="HUSXWBsQ4Mg_SYfQPAs_-46" value="" style="rounded=0;html=1;jettySize=auto;orthogonalLoop=1;fontSize=11;endArrow=block;endFill=0;endSize=8;strokeWidth=1;shadow=0;labelBackgroundColor=none;edgeStyle=orthogonalEdgeStyle;strokeColor=#36393d;fillColor=#eeeeee;fontColor=#000000;exitX=0.5;exitY=1;exitDx=0;exitDy=0;" edge="1" parent="WIyWlLk6GJQsqaUBKTNV-1">
          <mxGeometry relative="1" as="geometry">
            <mxPoint x="-230.24" y="699" as="sourcePoint" />
            <mxPoint x="-230.26" y="729" as="targetPoint" />
            <Array as="points" />
          </mxGeometry>
        </mxCell>
        <mxCell id="HUSXWBsQ4Mg_SYfQPAs_-47" value="" style="rounded=0;html=1;jettySize=auto;orthogonalLoop=1;fontSize=11;endArrow=block;endFill=0;endSize=8;strokeWidth=1;shadow=0;labelBackgroundColor=none;edgeStyle=orthogonalEdgeStyle;strokeColor=#36393d;fillColor=#eeeeee;fontColor=#000000;exitX=1;exitY=0.5;exitDx=0;exitDy=0;" edge="1" parent="WIyWlLk6GJQsqaUBKTNV-1" source="HUSXWBsQ4Mg_SYfQPAs_-38" target="HUSXWBsQ4Mg_SYfQPAs_-40">
          <mxGeometry relative="1" as="geometry">
            <mxPoint x="-160" y="660" as="sourcePoint" />
            <mxPoint x="-110" y="680" as="targetPoint" />
            <Array as="points">
              <mxPoint x="-170" y="660" />
              <mxPoint x="-120" y="660" />
            </Array>
          </mxGeometry>
        </mxCell>
        <mxCell id="HUSXWBsQ4Mg_SYfQPAs_-48" value="" style="rounded=0;html=1;jettySize=auto;orthogonalLoop=1;fontSize=11;endArrow=block;endFill=0;endSize=8;strokeWidth=1;shadow=0;labelBackgroundColor=none;edgeStyle=orthogonalEdgeStyle;strokeColor=#36393d;fillColor=#eeeeee;fontColor=#000000;exitX=0.5;exitY=1;exitDx=0;exitDy=0;" edge="1" parent="WIyWlLk6GJQsqaUBKTNV-1">
          <mxGeometry relative="1" as="geometry">
            <mxPoint x="-60" y="720" as="sourcePoint" />
            <mxPoint x="-560" y="340" as="targetPoint" />
            <Array as="points">
              <mxPoint x="-50" y="720" />
              <mxPoint x="-50" y="340" />
            </Array>
          </mxGeometry>
        </mxCell>
        <mxCell id="HUSXWBsQ4Mg_SYfQPAs_-49" value="&lt;font color=&quot;#0a0a0a&quot;&gt;exit&lt;/font&gt;" style="rounded=0;whiteSpace=wrap;html=1;fillColor=#EEEEEE;strokeColor=#36393d;" vertex="1" parent="WIyWlLk6GJQsqaUBKTNV-1">
          <mxGeometry x="-620" y="550" width="120" height="40" as="geometry" />
        </mxCell>
        <mxCell id="HUSXWBsQ4Mg_SYfQPAs_-50" value="" style="rounded=0;whiteSpace=wrap;html=1;fillColor=#EEEEEE;strokeColor=#36393d;" vertex="1" parent="WIyWlLk6GJQsqaUBKTNV-1">
          <mxGeometry x="-510" y="610" width="120" height="40" as="geometry" />
        </mxCell>
        <mxCell id="HUSXWBsQ4Mg_SYfQPAs_-51" value="" style="rounded=0;whiteSpace=wrap;html=1;fillColor=#EEEEEE;strokeColor=#36393d;" vertex="1" parent="WIyWlLk6GJQsqaUBKTNV-1">
          <mxGeometry x="-400" y="670" width="120" height="40" as="geometry" />
        </mxCell>
        <mxCell id="HUSXWBsQ4Mg_SYfQPAs_-52" value="" style="rounded=0;whiteSpace=wrap;html=1;fillColor=#EEEEEE;strokeColor=#36393d;" vertex="1" parent="WIyWlLk6GJQsqaUBKTNV-1">
          <mxGeometry x="-290" y="730" width="120" height="40" as="geometry" />
        </mxCell>
        <mxCell id="HUSXWBsQ4Mg_SYfQPAs_-55" value="&lt;font color=&quot;#0a0a0a&quot;&gt;ssint&lt;/font&gt;" style="rounded=0;whiteSpace=wrap;html=1;fillColor=#EEEEEE;strokeColor=#36393d;" vertex="1" parent="WIyWlLk6GJQsqaUBKTNV-1">
          <mxGeometry x="-510" y="610" width="120" height="40" as="geometry" />
        </mxCell>
        <mxCell id="HUSXWBsQ4Mg_SYfQPAs_-56" value="&lt;font color=&quot;#0a0a0a&quot;&gt;sspryam&lt;/font&gt;" style="rounded=0;whiteSpace=wrap;html=1;fillColor=#EEEEEE;strokeColor=#36393d;" vertex="1" parent="WIyWlLk6GJQsqaUBKTNV-1">
          <mxGeometry x="-400" y="670" width="120" height="40" as="geometry" />
        </mxCell>
        <mxCell id="HUSXWBsQ4Mg_SYfQPAs_-57" value="&lt;font color=&quot;#0a0a0a&quot;&gt;pogr&lt;/font&gt;" style="rounded=0;whiteSpace=wrap;html=1;fillColor=#EEEEEE;strokeColor=#36393d;" vertex="1" parent="WIyWlLk6GJQsqaUBKTNV-1">
          <mxGeometry x="-290" y="730" width="120" height="40" as="geometry" />
        </mxCell>
        <mxCell id="HUSXWBsQ4Mg_SYfQPAs_-58" value="" style="rounded=0;html=1;jettySize=auto;orthogonalLoop=1;fontSize=11;endArrow=block;endFill=0;endSize=8;strokeWidth=1;shadow=0;labelBackgroundColor=none;edgeStyle=orthogonalEdgeStyle;strokeColor=#36393d;fillColor=#eeeeee;fontColor=#000000;exitX=0.5;exitY=1;exitDx=0;exitDy=0;" edge="1" parent="WIyWlLk6GJQsqaUBKTNV-1">
          <mxGeometry relative="1" as="geometry">
            <mxPoint x="-120.24000000000001" y="760" as="sourcePoint" />
            <mxPoint x="-120.25999999999999" y="790" as="targetPoint" />
            <Array as="points" />
          </mxGeometry>
        </mxCell>
        <mxCell id="HUSXWBsQ4Mg_SYfQPAs_-59" value="&lt;font color=&quot;#0a0a0a&quot;&gt;clear&lt;/font&gt;" style="rounded=0;whiteSpace=wrap;html=1;fillColor=#EEEEEE;strokeColor=#36393d;" vertex="1" parent="WIyWlLk6GJQsqaUBKTNV-1">
          <mxGeometry x="-180" y="791" width="120" height="40" as="geometry" />
        </mxCell>
        <mxCell id="HUSXWBsQ4Mg_SYfQPAs_-62" value="" style="endArrow=none;html=1;rounded=0;strokeColor=#36393d;" edge="1" parent="WIyWlLk6GJQsqaUBKTNV-1">
          <mxGeometry width="50" height="50" relative="1" as="geometry">
            <mxPoint x="-390" y="710" as="sourcePoint" />
            <mxPoint x="-390" y="670" as="targetPoint" />
          </mxGeometry>
        </mxCell>
        <mxCell id="HUSXWBsQ4Mg_SYfQPAs_-64" value="" style="endArrow=none;html=1;rounded=0;strokeColor=#36393d;" edge="1" parent="WIyWlLk6GJQsqaUBKTNV-1">
          <mxGeometry width="50" height="50" relative="1" as="geometry">
            <mxPoint x="-290.33" y="710" as="sourcePoint" />
            <mxPoint x="-290.33" y="670" as="targetPoint" />
          </mxGeometry>
        </mxCell>
        <mxCell id="HUSXWBsQ4Mg_SYfQPAs_-65" value="" style="endArrow=none;html=1;rounded=0;strokeColor=#36393d;" edge="1" parent="WIyWlLk6GJQsqaUBKTNV-1">
          <mxGeometry width="50" height="50" relative="1" as="geometry">
            <mxPoint x="-280" y="770" as="sourcePoint" />
            <mxPoint x="-280" y="730" as="targetPoint" />
          </mxGeometry>
        </mxCell>
        <mxCell id="HUSXWBsQ4Mg_SYfQPAs_-66" value="" style="endArrow=none;html=1;rounded=0;strokeColor=#36393d;" edge="1" parent="WIyWlLk6GJQsqaUBKTNV-1">
          <mxGeometry width="50" height="50" relative="1" as="geometry">
            <mxPoint x="-180.33" y="770" as="sourcePoint" />
            <mxPoint x="-180.33" y="730" as="targetPoint" />
          </mxGeometry>
        </mxCell>
        <mxCell id="HUSXWBsQ4Mg_SYfQPAs_-67" value="" style="endArrow=none;html=1;rounded=0;strokeColor=#36393d;" edge="1" parent="WIyWlLk6GJQsqaUBKTNV-1">
          <mxGeometry width="50" height="50" relative="1" as="geometry">
            <mxPoint x="-170" y="831" as="sourcePoint" />
            <mxPoint x="-170" y="791" as="targetPoint" />
          </mxGeometry>
        </mxCell>
        <mxCell id="HUSXWBsQ4Mg_SYfQPAs_-68" value="" style="endArrow=none;html=1;rounded=0;strokeColor=#36393d;" edge="1" parent="WIyWlLk6GJQsqaUBKTNV-1">
          <mxGeometry width="50" height="50" relative="1" as="geometry">
            <mxPoint x="-70" y="831" as="sourcePoint" />
            <mxPoint x="-70" y="791" as="targetPoint" />
          </mxGeometry>
        </mxCell>
        <mxCell id="HUSXWBsQ4Mg_SYfQPAs_-69" value="" style="endArrow=none;html=1;rounded=0;strokeColor=#36393d;" edge="1" parent="WIyWlLk6GJQsqaUBKTNV-1">
          <mxGeometry width="50" height="50" relative="1" as="geometry">
            <mxPoint x="-400" y="650" as="sourcePoint" />
            <mxPoint x="-400" y="610" as="targetPoint" />
          </mxGeometry>
        </mxCell>
        <mxCell id="HUSXWBsQ4Mg_SYfQPAs_-70" value="" style="endArrow=none;html=1;rounded=0;strokeColor=#36393d;" edge="1" parent="WIyWlLk6GJQsqaUBKTNV-1">
          <mxGeometry width="50" height="50" relative="1" as="geometry">
            <mxPoint x="-500" y="650" as="sourcePoint" />
            <mxPoint x="-500" y="610" as="targetPoint" />
          </mxGeometry>
        </mxCell>
        <mxCell id="HUSXWBsQ4Mg_SYfQPAs_-71" value="" style="endArrow=none;html=1;rounded=0;strokeColor=#36393d;" edge="1" parent="WIyWlLk6GJQsqaUBKTNV-1">
          <mxGeometry width="50" height="50" relative="1" as="geometry">
            <mxPoint x="-510.33" y="590" as="sourcePoint" />
            <mxPoint x="-510.33" y="550" as="targetPoint" />
          </mxGeometry>
        </mxCell>
        <mxCell id="HUSXWBsQ4Mg_SYfQPAs_-72" value="" style="endArrow=none;html=1;rounded=0;strokeColor=#36393d;" edge="1" parent="WIyWlLk6GJQsqaUBKTNV-1">
          <mxGeometry width="50" height="50" relative="1" as="geometry">
            <mxPoint x="-610" y="590" as="sourcePoint" />
            <mxPoint x="-610" y="550" as="targetPoint" />
          </mxGeometry>
        </mxCell>
      </root>
    </mxGraphModel>
  </diagram>
</mxfile>
